# File created by Blade
# Date/Time:  Tue Apr 07 21:12:38 2015
# Frame Rate: 120.000 fps
#------------------------------------------------------
:FULLY-SPECIFIED
:DEGREES
2023
root -0.324171 33.032593 4.974557 732.202695 4.716934 -721.388370
Spine -11.601999 -7.501340 0.796380
Head 7.904743 -2.711138 0.299217
LeftShoulder 158.893621 142.282152 198.931918
LeftArm 58.962518 -59.253480 -60.027160
LeftForeArm 13.591749 -0.000000 -2.462530
LeftHand 4.361073 -0.000000 7.867388
LeftHandThumb1 -26.253704 0.000000 33.147579
RightShoulder -7.309815 5.661876 -31.698453
RightArm 12.086204 16.787247 44.948439
RightForeArm -16.762554 -0.000000 -0.274029
RightHand 0.527280 -0.000000 1.902562
RightHandThumb1 -24.326973 -0.000000 -32.862282
LeftUpLeg -6.485005 -7.960601 4.240988
LeftLeg -4.931770 -0.000000 0.000000
LeftFoot -3.025701 8.421487 -17.262602
LeftToeBase -12.094345 -0.000000 0.000000
RightUpLeg -4.720753 0.759174 1.903117
RightLeg -3.782251 -0.000000 0.000000
RightFoot -5.140200 -10.916387 13.116963
RightToeBase -6.183899 -0.000000 0.000000
2024
root -0.327241 33.031906 4.990125 732.233828 4.593377 -721.394887
Spine -11.727966 -7.530479 0.757132
Head 8.215251 -2.670998 0.215656
LeftShoulder 158.821213 142.340124 198.960892
LeftArm 59.149649 -59.505901 -60.042283
LeftForeArm 13.702942 0.000000 -2.442179
LeftHand 4.381089 -0.000000 8.077588
LeftHandThumb1 -26.253704 0.000000 33.147579
RightShoulder -7.319242 5.723623 -31.713666
RightArm 12.038532 16.878337 44.974915
RightForeArm -16.694091 0.000000 -0.253729
RightHand 0.536659 -0.000000 1.831869
RightHandThumb1 -24.326973 -0.000000 -32.862282
LeftUpLeg -6.468544 -7.845978 4.220665
LeftLeg -4.951295 -0.000000 0.000000
LeftFoot -3.034458 8.466603 -17.229383
LeftToeBase -12.113458 -0.000000 0.000000
RightUpLeg -4.715590 0.788354 1.912487
RightLeg -3.828498 -0.000000 0.000000
RightFoot -5.101594 -10.916531 13.062322
RightToeBase -6.154533 -0.000000 0.000000
2025
root -0.330904 33.031312 5.006451 732.269403 4.463467 -721.409934
Spine -11.872172 -7.532334 0.721308
Head 8.557195 -2.651041 0.132499
LeftShoulder 158.781814 142.368965 199.009587
LeftArm 59.258036 -59.710807 -59.960663
LeftForeArm 13.718523 -0.000000 -2.403240
LeftHand 4.388795 -0.000000 8.153151
LeftHandThumb1 -26.253704 0.000000 33.147579
RightShoulder -7.366533 5.801857 -31.707424
RightArm 12.005386 16.961580 44.978541
RightForeArm -16.692449 -0.000000 -0.244421
RightHand 0.523834 -0.000000 1.768064
RightHandThumb1 -24.326973 -0.000000 -32.862282
LeftUpLeg -6.454075 -7.740146 4.212375
LeftLeg -4.973961 -0.000000 0.000000
LeftFoot -3.061030 8.509831 -17.234712
LeftToeBase -12.066927 -0.000000 0.000000
RightUpLeg -4.721655 0.802595 1.931686
RightLeg -3.861991 -0.000000 0.000000
RightFoot -5.049806 -10.887081 12.987021
RightToeBase -6.235397 -0.000000 0.000000
2026
root -0.334579 33.030466 5.022575 732.326512 4.335400 -721.423672
Spine -12.047890 -7.529672 0.694534
Head 8.899133 -2.601181 0.035083
LeftShoulder 158.786124 142.448861 199.111163
LeftArm 59.422420 -59.972071 -60.077526
LeftForeArm 13.943253 0.000000 -2.276671
LeftHand 4.494345 0.000000 8.027603
LeftHandThumb1 -26.253704 0.000000 33.147579
RightShoulder -7.419736 5.806022 -31.691350
RightArm 12.016076 17.044919 44.973701
RightForeArm -16.712527 -0.000000 -0.190205
RightHand 0.386387 0.000000 1.708430
RightHandThumb1 -24.326973 -0.000000 -32.862282
LeftUpLeg -6.471017 -7.620117 4.212217
LeftLeg -4.976599 -0.000000 0.000000
LeftFoot -3.080977 8.464846 -17.571454
LeftToeBase -12.222795 -0.000000 0.000000
RightUpLeg -4.727870 0.884310 1.942951
RightLeg -3.933470 -0.000000 0.000000
RightFoot -5.000299 -10.929075 12.931486
RightToeBase -6.224885 -0.000000 0.000000
2027
root -0.335064 33.030818 5.039672 732.370421 4.225361 -721.426286
Spine -12.219937 -7.558894 0.678654
Head 9.269296 -2.516851 -0.089448
LeftShoulder 158.787729 142.524990 199.159629
LeftArm 59.198559 -60.091514 -59.666926
LeftForeArm 13.880437 0.000000 -2.231245
LeftHand 4.512210 -0.000000 8.182001
LeftHandThumb1 -26.253704 0.000000 33.147579
RightShoulder -7.428199 5.860309 -31.628941
RightArm 11.976888 17.026727 44.848233
RightForeArm -16.760420 -0.000000 -0.192478
RightHand 0.765575 -0.000000 1.699223
RightHandThumb1 -24.326973 -0.000000 -32.862282
LeftUpLeg -6.465523 -7.574828 4.198012
LeftLeg -4.997511 -0.000000 0.000000
LeftFoot -3.106966 8.551506 -17.601843
LeftToeBase -12.204169 -0.000000 0.000000
RightUpLeg -4.728412 0.923638 1.941271
RightLeg -3.980833 -0.000000 0.000000
RightFoot -4.963635 -10.934261 12.888953
RightToeBase -6.225635 -0.000000 0.000000
2028
root -0.335803 33.030432 5.057836 732.434304 4.112723 -721.422975
Spine -12.406026 -7.574586 0.650518
Head 9.607236 -2.436212 -0.184552
LeftShoulder 158.767157 142.613760 199.232306
LeftArm 59.110091 -60.217132 -59.436251
LeftForeArm 14.033074 -0.000000 -2.150349
LeftHand 4.485589 0.000000 8.055527
LeftHandThumb1 -26.253704 0.000000 33.147579
RightShoulder -7.478553 5.913948 -31.615327
RightArm 11.935002 16.980484 44.795540
RightForeArm -16.928342 -0.000000 -0.167266
RightHand 0.671402 -0.000000 1.673612
RightHandThumb1 -24.326973 -0.000000 -32.862282
LeftUpLeg -6.476731 -7.525744 4.182999
LeftLeg -5.014124 -0.000000 0.000000
LeftFoot -3.197389 8.669306 -17.414737
LeftToeBase -11.826328 -0.000000 0.000000
RightUpLeg -4.735163 1.000681 1.930219
RightLeg -4.051124 -0.000000 0.000000
RightFoot -4.940629 -10.974530 12.852519
RightToeBase -6.165989 -0.000000 0.000000
2029
root -0.338100 33.029634 5.076460 732.487109 3.994205 -721.426582
Spine -12.575292 -7.590328 0.629197
Head 9.920090 -2.350086 -0.301016
LeftShoulder 158.731448 142.680516 199.285186
LeftArm 58.941110 -60.287498 -59.114176
LeftForeArm 13.894172 -0.000000 -2.052846
LeftHand 4.339854 -0.000000 8.036451
LeftHandThumb1 -26.253704 0.000000 33.147579
RightShoulder -7.541633 5.913772 -31.559163
RightArm 11.960584 16.906207 44.709416
RightForeArm -17.031913 0.000000 -0.109503
RightHand 0.527233 -0.000000 1.528015
RightHandThumb1 -24.326973 -0.000000 -32.862282
LeftUpLeg -6.472763 -7.454822 4.178200
LeftLeg -5.044891 -0.000000 0.000000
LeftFoot -3.177080 8.645049 -17.678408
LeftToeBase -12.066271 -0.000000 0.000000
RightUpLeg -4.738744 1.076111 1.929787
RightLeg -4.101179 -0.000000 0.000000
RightFoot -4.918852 -11.006856 12.830721
RightToeBase -6.187636 -0.000000 0.000000
2030
root -0.338059 33.029388 5.094268 732.547794 3.895291 -721.416765
Spine -12.754396 -7.605697 0.598697
Head 10.224976 -2.253404 -0.381060
LeftShoulder 158.714461 142.730598 199.336906
LeftArm 58.831377 -60.392232 -58.856926
LeftForeArm 14.001747 0.000000 -1.965727
LeftHand 4.385933 -0.000000 8.036284
LeftHandThumb1 -26.253704 0.000000 33.147579
RightShoulder -7.625287 5.878777 -31.506035
RightArm 12.005533 16.803983 44.622667
RightForeArm -17.181560 0.000000 -0.083641
RightHand 0.408185 -0.000000 1.452945
RightHandThumb1 -24.326973 -0.000000 -32.862282
LeftUpLeg -6.473123 -7.475660 4.168926
LeftLeg -5.091779 -0.000000 0.000000
LeftFoot -3.200014 8.788611 -17.502722
LeftToeBase -11.936217 -0.000000 0.000000
RightUpLeg -4.743565 1.136672 1.913217
RightLeg -4.164652 -0.000000 0.000000
RightFoot -4.903670 -11.049836 12.795025
RightToeBase -6.127576 -0.000000 0.000000
2031
root -0.337447 33.028663 5.112703 732.594768 3.811804 -721.409541
Spine -12.911754 -7.627799 0.592622
Head 10.507700 -2.186823 -0.517235
LeftShoulder 158.711879 142.796227 199.378733
LeftArm 58.583199 -60.449024 -58.492654
LeftForeArm 13.779465 -0.000000 -1.901227
LeftHand 4.643124 -0.000000 8.111890
LeftHandThumb1 -26.253704 0.000000 33.147579
RightShoulder -7.665876 5.868635 -31.432203
RightArm 11.968466 16.678603 44.442159
RightForeArm -17.179676 -0.000000 -0.018845
RightHand 0.473768 -0.000000 1.464747
RightHandThumb1 -24.326973 -0.000000 -32.862282
LeftUpLeg -6.458315 -7.508667 4.168428
LeftLeg -5.144735 -0.000000 0.000000
LeftFoot -3.236326 8.876178 -17.569602
LeftToeBase -11.802545 -0.000000 0.000000
RightUpLeg -4.739016 1.192072 1.900104
RightLeg -4.215256 -0.000000 0.000000
RightFoot -4.904508 -11.084853 12.802592
RightToeBase -6.099541 -0.000000 0.000000
2032
root -0.338011 33.027968 5.131766 732.631847 3.722588 -721.406505
Spine -13.054495 -7.639719 0.582500
Head 10.767795 -2.125609 -0.637957
LeftShoulder 158.730071 142.870606 199.445466
LeftArm 58.440048 -60.547683 -58.293485
LeftForeArm 13.644345 -0.000000 -1.790176
LeftHand 4.562570 -0.000000 7.928621
LeftHandThumb1 -26.253704 0.000000 33.147579
RightShoulder -7.726455 5.810282 -31.364197
RightArm 11.960558 16.627429 44.308024
RightForeArm -17.197660 -0.000000 0.060112
RightHand 0.470737 -0.000000 1.587987
RightHandThumb1 -24.326973 -0.000000 -32.862282
LeftUpLeg -6.425155 -7.511950 4.174810
LeftLeg -5.212981 -0.000000 0.000000
LeftFoot -3.189875 8.870882 -17.851845
LeftToeBase -12.087225 -0.000000 0.000000
RightUpLeg -4.727687 1.215579 1.898658
RightLeg -4.256512 -0.000000 0.000000
RightFoot -4.903645 -11.090617 12.785320
RightToeBase -6.023024 -0.000000 0.000000
2033
root -0.337911 33.027494 5.150631 732.666995 3.630819 -721.388702
Spine -13.188259 -7.654265 0.553016
Head 11.007093 -2.041227 -0.720336
LeftShoulder 158.750899 142.982868 199.543680
LeftArm 58.176357 -60.562391 -57.992344
LeftForeArm 13.459613 -0.000000 -1.728471
LeftHand 4.545068 -0.000000 7.907047
LeftHandThumb1 -26.253704 0.000000 33.147579
RightShoulder -7.795754 5.675906 -31.264854
RightArm 12.037729 16.619833 44.184639
RightForeArm -17.241598 0.000000 0.122484
RightHand 0.334637 0.000000 1.516806
RightHandThumb1 -24.326973 -0.000000 -32.862282
LeftUpLeg -6.383503 -7.532464 4.162192
LeftLeg -5.281062 -0.000000 0.000000
LeftFoot -3.240164 8.980974 -17.785735
LeftToeBase -11.789738 -0.000000 0.000000
RightUpLeg -4.721938 1.248239 1.878627
RightLeg -4.281285 -0.000000 0.000000
RightFoot -4.911322 -11.096911 12.799774
RightToeBase -6.058592 -0.000000 0.000000
2034
root -0.338242 33.026016 5.168686 732.700355 3.558210 -721.365314
Spine -13.313023 -7.699062 0.528708
Head 11.210086 -1.960525 -0.800927
LeftShoulder 158.720592 143.009397 199.552062
LeftArm 58.167841 -60.685526 -57.897271
LeftForeArm 13.456833 -0.000000 -1.699627
LeftHand 4.537761 0.000000 7.739148
LeftHandThumb1 -26.253704 0.000000 33.147579
RightShoulder -7.852597 5.671832 -31.192031
RightArm 12.024109 16.548474 44.048037
RightForeArm -17.246906 -0.000000 0.132816
RightHand 0.425902 -0.000000 1.585155
RightHandThumb1 -24.326973 -0.000000 -32.862282
LeftUpLeg -6.351917 -7.561391 4.153200
LeftLeg -5.337462 -0.000000 0.000000
LeftFoot -3.199118 8.975272 -18.044214
LeftToeBase -12.138075 -0.000000 0.000000
RightUpLeg -4.718002 1.263801 1.857837
RightLeg -4.300869 -0.000000 0.000000
RightFoot -4.928604 -11.103997 12.751848
RightToeBase -6.025736 -0.000000 0.000000
